<mxfile host="app.diagrams.net" agent="Mozilla/5.0 (X11; Linux x86_64) AppleWebKit/537.36 (KHTML, like Gecko) Chrome/134.0.0.0 Safari/537.36" version="26.1.2">
  <diagram name="PÃ¡gina-1" id="_DqZXNJEzkWR17LwoJHk">
    <mxGraphModel dx="1660" dy="1167" grid="1" gridSize="10" guides="1" tooltips="1" connect="1" arrows="1" fold="1" page="1" pageScale="1" pageWidth="640" pageHeight="400" math="0" shadow="0">
      <root>
        <mxCell id="0" />
        <mxCell id="1" parent="0" />
        <mxCell id="EatgDQGPLKpnnFWq92qj-1" value="100 (srv-gro-mas)" style="fontColor=#0066CC;verticalAlign=top;verticalLabelPosition=bottom;labelPosition=center;align=center;html=1;outlineConnect=0;fillColor=#CCCCCC;strokeColor=#6881B3;gradientColor=none;gradientDirection=north;strokeWidth=2;shape=mxgraph.networks.virtual_server;" vertex="1" parent="1">
          <mxGeometry x="240" y="280" width="110" height="120" as="geometry" />
        </mxCell>
        <mxCell id="EatgDQGPLKpnnFWq92qj-33" style="edgeStyle=orthogonalEdgeStyle;rounded=0;orthogonalLoop=1;jettySize=auto;html=1;exitX=1;exitY=0.5;exitDx=0;exitDy=0;exitPerimeter=0;" edge="1" parent="1" source="EatgDQGPLKpnnFWq92qj-2" target="EatgDQGPLKpnnFWq92qj-8">
          <mxGeometry relative="1" as="geometry">
            <Array as="points">
              <mxPoint x="590" y="520" />
              <mxPoint x="590" y="520" />
            </Array>
          </mxGeometry>
        </mxCell>
        <mxCell id="EatgDQGPLKpnnFWq92qj-46" value="192.168.10.12" style="edgeLabel;html=1;align=center;verticalAlign=middle;resizable=0;points=[];" vertex="1" connectable="0" parent="EatgDQGPLKpnnFWq92qj-33">
          <mxGeometry x="-0.5833" y="-3" relative="1" as="geometry">
            <mxPoint x="23" y="-3" as="offset" />
          </mxGeometry>
        </mxCell>
        <mxCell id="EatgDQGPLKpnnFWq92qj-2" value="101 (srv-gro-min-01)" style="fontColor=#0066CC;verticalAlign=top;verticalLabelPosition=bottom;labelPosition=center;align=center;html=1;outlineConnect=0;fillColor=#CCCCCC;strokeColor=#6881B3;gradientColor=none;gradientDirection=north;strokeWidth=2;shape=mxgraph.networks.virtual_server;" vertex="1" parent="1">
          <mxGeometry x="240" y="460" width="110" height="120" as="geometry" />
        </mxCell>
        <mxCell id="EatgDQGPLKpnnFWq92qj-3" value="102 (srv-gro-min-02)" style="fontColor=#0066CC;verticalAlign=top;verticalLabelPosition=bottom;labelPosition=center;align=center;html=1;outlineConnect=0;fillColor=#CCCCCC;strokeColor=#6881B3;gradientColor=none;gradientDirection=north;strokeWidth=2;shape=mxgraph.networks.virtual_server;" vertex="1" parent="1">
          <mxGeometry x="240" y="640" width="110" height="120" as="geometry" />
        </mxCell>
        <mxCell id="EatgDQGPLKpnnFWq92qj-4" value="&amp;nbsp;103 (srv-gro-siga)" style="fontColor=#0066CC;verticalAlign=top;verticalLabelPosition=bottom;labelPosition=center;align=center;html=1;outlineConnect=0;fillColor=#CCCCCC;strokeColor=#6881B3;gradientColor=none;gradientDirection=north;strokeWidth=2;shape=mxgraph.networks.virtual_server;" vertex="1" parent="1">
          <mxGeometry x="240" y="820" width="110" height="120" as="geometry" />
        </mxCell>
        <mxCell id="EatgDQGPLKpnnFWq92qj-5" value="104 (srv-gro-bd)" style="fontColor=#0066CC;verticalAlign=top;verticalLabelPosition=bottom;labelPosition=center;align=center;html=1;outlineConnect=0;fillColor=#CCCCCC;strokeColor=#6881B3;gradientColor=none;gradientDirection=north;strokeWidth=2;shape=mxgraph.networks.virtual_server;" vertex="1" parent="1">
          <mxGeometry x="240" y="1000" width="110" height="120" as="geometry" />
        </mxCell>
        <mxCell id="EatgDQGPLKpnnFWq92qj-6" value="&amp;nbsp;105 (srv-gro-docker)" style="fontColor=#0066CC;verticalAlign=top;verticalLabelPosition=bottom;labelPosition=center;align=center;html=1;outlineConnect=0;fillColor=#CCCCCC;strokeColor=#6881B3;gradientColor=none;gradientDirection=north;strokeWidth=2;shape=mxgraph.networks.virtual_server;" vertex="1" parent="1">
          <mxGeometry x="240" y="1180" width="110" height="120" as="geometry" />
        </mxCell>
        <mxCell id="EatgDQGPLKpnnFWq92qj-7" value="106 (srv-gro-zabbix)" style="fontColor=#0066CC;verticalAlign=top;verticalLabelPosition=bottom;labelPosition=center;align=center;html=1;outlineConnect=0;fillColor=#CCCCCC;strokeColor=#6881B3;gradientColor=none;gradientDirection=north;strokeWidth=2;shape=mxgraph.networks.virtual_server;" vertex="1" parent="1">
          <mxGeometry x="240" y="1360" width="110" height="120" as="geometry" />
        </mxCell>
        <mxCell id="EatgDQGPLKpnnFWq92qj-8" value="LAN 10&lt;br&gt;(192.168.10.0&lt;span style=&quot;background-color: transparent; color: light-dark(rgb(0, 102, 204), rgb(86, 174, 255));&quot;&gt;/24)&lt;/span&gt;" style="fontColor=#0066CC;verticalAlign=top;verticalLabelPosition=bottom;labelPosition=center;align=center;html=1;outlineConnect=0;fillColor=#CCCCCC;strokeColor=#6881B3;gradientColor=none;gradientDirection=north;strokeWidth=2;shape=mxgraph.networks.switch;" vertex="1" parent="1">
          <mxGeometry x="630" y="505" width="100" height="30" as="geometry" />
        </mxCell>
        <mxCell id="EatgDQGPLKpnnFWq92qj-9" value="LAN 3&lt;br&gt;(192.168.3.0/24)" style="fontColor=#000000;verticalAlign=top;verticalLabelPosition=bottom;labelPosition=center;align=center;html=1;outlineConnect=0;fillColor=#fa6800;strokeColor=#C73500;gradientDirection=north;strokeWidth=2;shape=mxgraph.networks.switch;" vertex="1" parent="1">
          <mxGeometry x="630" y="1225" width="100" height="30" as="geometry" />
        </mxCell>
        <mxCell id="EatgDQGPLKpnnFWq92qj-10" value="GW 10&lt;br&gt;(192.168.10.1/24)" style="fontColor=#0066CC;verticalAlign=top;verticalLabelPosition=bottom;labelPosition=center;align=center;html=1;outlineConnect=0;fillColor=#CCCCCC;strokeColor=#6881B3;gradientColor=none;gradientDirection=north;strokeWidth=2;shape=mxgraph.networks.router;" vertex="1" parent="1">
          <mxGeometry x="864" y="505" width="100" height="30" as="geometry" />
        </mxCell>
        <mxCell id="EatgDQGPLKpnnFWq92qj-12" style="edgeStyle=orthogonalEdgeStyle;rounded=0;orthogonalLoop=1;jettySize=auto;html=1;exitX=1;exitY=0.5;exitDx=0;exitDy=0;exitPerimeter=0;entryX=0;entryY=0.5;entryDx=0;entryDy=0;entryPerimeter=0;" edge="1" parent="1" source="EatgDQGPLKpnnFWq92qj-8" target="EatgDQGPLKpnnFWq92qj-10">
          <mxGeometry relative="1" as="geometry" />
        </mxCell>
        <mxCell id="EatgDQGPLKpnnFWq92qj-31" style="edgeStyle=orthogonalEdgeStyle;rounded=0;orthogonalLoop=1;jettySize=auto;html=1;exitX=0;exitY=0.5;exitDx=0;exitDy=0;exitPerimeter=0;entryX=0;entryY=0.5;entryDx=0;entryDy=0;entryPerimeter=0;fillColor=#fa6800;strokeColor=#C73500;" edge="1" parent="1" source="EatgDQGPLKpnnFWq92qj-5" target="EatgDQGPLKpnnFWq92qj-9">
          <mxGeometry relative="1" as="geometry">
            <Array as="points">
              <mxPoint x="80" y="1060" />
              <mxPoint x="80" y="1520" />
              <mxPoint x="580" y="1520" />
              <mxPoint x="580" y="1240" />
            </Array>
          </mxGeometry>
        </mxCell>
        <mxCell id="EatgDQGPLKpnnFWq92qj-87" value="192.168.3.116" style="edgeLabel;html=1;align=center;verticalAlign=middle;resizable=0;points=[];" vertex="1" connectable="0" parent="EatgDQGPLKpnnFWq92qj-31">
          <mxGeometry x="-0.9063" y="-1" relative="1" as="geometry">
            <mxPoint y="1" as="offset" />
          </mxGeometry>
        </mxCell>
        <mxCell id="EatgDQGPLKpnnFWq92qj-35" style="edgeStyle=orthogonalEdgeStyle;rounded=0;orthogonalLoop=1;jettySize=auto;html=1;entryX=0;entryY=0.5;entryDx=0;entryDy=0;entryPerimeter=0;" edge="1" parent="1" source="EatgDQGPLKpnnFWq92qj-1" target="EatgDQGPLKpnnFWq92qj-8">
          <mxGeometry relative="1" as="geometry">
            <Array as="points">
              <mxPoint x="520" y="290" />
              <mxPoint x="520" y="520" />
            </Array>
          </mxGeometry>
        </mxCell>
        <mxCell id="EatgDQGPLKpnnFWq92qj-45" value="192.168.10.11" style="edgeLabel;html=1;align=center;verticalAlign=middle;resizable=0;points=[];" vertex="1" connectable="0" parent="EatgDQGPLKpnnFWq92qj-35">
          <mxGeometry x="-0.75" y="-2" relative="1" as="geometry">
            <mxPoint x="30" y="-2" as="offset" />
          </mxGeometry>
        </mxCell>
        <mxCell id="EatgDQGPLKpnnFWq92qj-37" style="edgeStyle=orthogonalEdgeStyle;rounded=0;orthogonalLoop=1;jettySize=auto;html=1;exitX=1;exitY=0.5;exitDx=0;exitDy=0;exitPerimeter=0;entryX=0;entryY=0.5;entryDx=0;entryDy=0;entryPerimeter=0;" edge="1" parent="1" source="EatgDQGPLKpnnFWq92qj-3" target="EatgDQGPLKpnnFWq92qj-8">
          <mxGeometry relative="1" as="geometry">
            <Array as="points">
              <mxPoint x="520" y="700" />
              <mxPoint x="520" y="520" />
            </Array>
          </mxGeometry>
        </mxCell>
        <mxCell id="EatgDQGPLKpnnFWq92qj-47" value="192.168.10.13" style="edgeLabel;html=1;align=center;verticalAlign=middle;resizable=0;points=[];" vertex="1" connectable="0" parent="EatgDQGPLKpnnFWq92qj-37">
          <mxGeometry x="-0.7346" y="-1" relative="1" as="geometry">
            <mxPoint x="27" y="-1" as="offset" />
          </mxGeometry>
        </mxCell>
        <mxCell id="EatgDQGPLKpnnFWq92qj-38" style="edgeStyle=orthogonalEdgeStyle;rounded=0;orthogonalLoop=1;jettySize=auto;html=1;entryX=0;entryY=0.5;entryDx=0;entryDy=0;entryPerimeter=0;" edge="1" parent="1" source="EatgDQGPLKpnnFWq92qj-4" target="EatgDQGPLKpnnFWq92qj-8">
          <mxGeometry relative="1" as="geometry">
            <Array as="points">
              <mxPoint x="520" y="880" />
              <mxPoint x="520" y="520" />
            </Array>
          </mxGeometry>
        </mxCell>
        <mxCell id="EatgDQGPLKpnnFWq92qj-48" value="192.168.10.14" style="edgeLabel;html=1;align=center;verticalAlign=middle;resizable=0;points=[];" vertex="1" connectable="0" parent="EatgDQGPLKpnnFWq92qj-38">
          <mxGeometry x="-0.7559" relative="1" as="geometry">
            <mxPoint x="12" as="offset" />
          </mxGeometry>
        </mxCell>
        <mxCell id="EatgDQGPLKpnnFWq92qj-39" style="edgeStyle=orthogonalEdgeStyle;rounded=0;orthogonalLoop=1;jettySize=auto;html=1;exitX=1;exitY=0.5;exitDx=0;exitDy=0;exitPerimeter=0;entryX=0;entryY=0.5;entryDx=0;entryDy=0;entryPerimeter=0;" edge="1" parent="1" source="EatgDQGPLKpnnFWq92qj-5" target="EatgDQGPLKpnnFWq92qj-8">
          <mxGeometry relative="1" as="geometry">
            <Array as="points">
              <mxPoint x="520" y="1060" />
              <mxPoint x="520" y="520" />
            </Array>
          </mxGeometry>
        </mxCell>
        <mxCell id="EatgDQGPLKpnnFWq92qj-51" value="192.168.10.15" style="edgeLabel;html=1;align=center;verticalAlign=middle;resizable=0;points=[];" vertex="1" connectable="0" parent="EatgDQGPLKpnnFWq92qj-39">
          <mxGeometry x="-0.7786" y="-1" relative="1" as="geometry">
            <mxPoint x="2" y="-1" as="offset" />
          </mxGeometry>
        </mxCell>
        <mxCell id="EatgDQGPLKpnnFWq92qj-41" style="edgeStyle=orthogonalEdgeStyle;rounded=0;orthogonalLoop=1;jettySize=auto;html=1;exitX=1;exitY=0.5;exitDx=0;exitDy=0;exitPerimeter=0;entryX=0;entryY=0.5;entryDx=0;entryDy=0;entryPerimeter=0;" edge="1" parent="1" source="EatgDQGPLKpnnFWq92qj-7" target="EatgDQGPLKpnnFWq92qj-8">
          <mxGeometry relative="1" as="geometry">
            <Array as="points">
              <mxPoint x="520" y="1420" />
              <mxPoint x="520" y="520" />
            </Array>
          </mxGeometry>
        </mxCell>
        <mxCell id="EatgDQGPLKpnnFWq92qj-53" value="192.168.10.17" style="edgeLabel;html=1;align=center;verticalAlign=middle;resizable=0;points=[];" vertex="1" connectable="0" parent="EatgDQGPLKpnnFWq92qj-41">
          <mxGeometry x="-0.869" relative="1" as="geometry">
            <mxPoint x="17" as="offset" />
          </mxGeometry>
        </mxCell>
        <mxCell id="EatgDQGPLKpnnFWq92qj-40" style="edgeStyle=orthogonalEdgeStyle;rounded=0;orthogonalLoop=1;jettySize=auto;html=1;entryX=0;entryY=0.5;entryDx=0;entryDy=0;entryPerimeter=0;fillColor=#e51400;strokeColor=#B20000;" edge="1" parent="1" source="EatgDQGPLKpnnFWq92qj-6" target="EatgDQGPLKpnnFWq92qj-8">
          <mxGeometry relative="1" as="geometry">
            <Array as="points">
              <mxPoint x="520" y="1240" />
              <mxPoint x="520" y="520" />
            </Array>
          </mxGeometry>
        </mxCell>
        <mxCell id="EatgDQGPLKpnnFWq92qj-52" value="192.168.10.25" style="edgeLabel;html=1;align=center;verticalAlign=middle;resizable=0;points=[];fontColor=light-dark(#000000,#FF0000);" vertex="1" connectable="0" parent="EatgDQGPLKpnnFWq92qj-40">
          <mxGeometry x="-0.81" y="-3" relative="1" as="geometry">
            <mxPoint x="-1" y="-3" as="offset" />
          </mxGeometry>
        </mxCell>
        <mxCell id="EatgDQGPLKpnnFWq92qj-55" style="edgeStyle=orthogonalEdgeStyle;rounded=0;orthogonalLoop=1;jettySize=auto;html=1;exitX=0;exitY=0.5;exitDx=0;exitDy=0;exitPerimeter=0;fillColor=#e51400;strokeColor=#B20000;" edge="1" parent="1" source="EatgDQGPLKpnnFWq92qj-54" target="EatgDQGPLKpnnFWq92qj-8">
          <mxGeometry relative="1" as="geometry" />
        </mxCell>
        <mxCell id="EatgDQGPLKpnnFWq92qj-56" value="192.168.10.25" style="edgeLabel;html=1;align=center;verticalAlign=middle;resizable=0;points=[];fontColor=light-dark(#000000,#FF0000);" vertex="1" connectable="0" parent="EatgDQGPLKpnnFWq92qj-55">
          <mxGeometry x="-0.59" y="1" relative="1" as="geometry">
            <mxPoint x="-20" y="-1" as="offset" />
          </mxGeometry>
        </mxCell>
        <mxCell id="EatgDQGPLKpnnFWq92qj-54" value="Â¿Web Service:80?" style="fontColor=#0066CC;verticalAlign=top;verticalLabelPosition=bottom;labelPosition=center;align=center;html=1;outlineConnect=0;fillColor=#CCCCCC;strokeColor=#6881B3;gradientColor=none;gradientDirection=north;strokeWidth=2;shape=mxgraph.networks.web_server;" vertex="1" parent="1">
          <mxGeometry x="1095" y="80" width="105" height="105" as="geometry" />
        </mxCell>
        <mxCell id="EatgDQGPLKpnnFWq92qj-57" value="LAN 0&lt;br&gt;(192.168.0.0/24)" style="fontColor=#000000;verticalAlign=top;verticalLabelPosition=bottom;labelPosition=center;align=center;html=1;outlineConnect=0;fillColor=#e3c800;strokeColor=#B09500;gradientDirection=north;strokeWidth=2;shape=mxgraph.networks.switch;" vertex="1" parent="1">
          <mxGeometry x="630" y="865" width="100" height="30" as="geometry" />
        </mxCell>
        <mxCell id="EatgDQGPLKpnnFWq92qj-60" style="edgeStyle=orthogonalEdgeStyle;rounded=0;orthogonalLoop=1;jettySize=auto;html=1;exitX=0;exitY=0.5;exitDx=0;exitDy=0;exitPerimeter=0;entryX=1;entryY=0.5;entryDx=0;entryDy=0;entryPerimeter=0;fillColor=#fa6800;strokeColor=#C73500;" edge="1" parent="1" source="EatgDQGPLKpnnFWq92qj-68" target="EatgDQGPLKpnnFWq92qj-9">
          <mxGeometry relative="1" as="geometry" />
        </mxCell>
        <mxCell id="EatgDQGPLKpnnFWq92qj-63" value="192.168.3.16" style="edgeLabel;html=1;align=center;verticalAlign=middle;resizable=0;points=[];" vertex="1" connectable="0" parent="EatgDQGPLKpnnFWq92qj-60">
          <mxGeometry x="0.0042" y="4" relative="1" as="geometry">
            <mxPoint x="-1" y="-4" as="offset" />
          </mxGeometry>
        </mxCell>
        <mxCell id="EatgDQGPLKpnnFWq92qj-61" style="edgeStyle=orthogonalEdgeStyle;rounded=0;orthogonalLoop=1;jettySize=auto;html=1;exitX=0.5;exitY=0;exitDx=0;exitDy=0;exitPerimeter=0;entryX=0;entryY=0.5;entryDx=0;entryDy=0;entryPerimeter=0;fillColor=#e3c800;strokeColor=#B09500;" edge="1" parent="1" source="EatgDQGPLKpnnFWq92qj-68" target="EatgDQGPLKpnnFWq92qj-57">
          <mxGeometry relative="1" as="geometry">
            <Array as="points">
              <mxPoint x="1147" y="968" />
              <mxPoint x="580" y="968" />
              <mxPoint x="580" y="880" />
            </Array>
          </mxGeometry>
        </mxCell>
        <mxCell id="EatgDQGPLKpnnFWq92qj-62" value="192.168.0.90" style="edgeLabel;html=1;align=center;verticalAlign=middle;resizable=0;points=[];" vertex="1" connectable="0" parent="EatgDQGPLKpnnFWq92qj-61">
          <mxGeometry x="0.0753" y="-2" relative="1" as="geometry">
            <mxPoint x="44" y="2" as="offset" />
          </mxGeometry>
        </mxCell>
        <mxCell id="EatgDQGPLKpnnFWq92qj-64" value="GW 0&lt;br&gt;(192.168.0.1/24)" style="fontColor=#000000;verticalAlign=top;verticalLabelPosition=bottom;labelPosition=center;align=center;html=1;outlineConnect=0;fillColor=#e3c800;strokeColor=#B09500;gradientDirection=north;strokeWidth=2;shape=mxgraph.networks.router;" vertex="1" parent="1">
          <mxGeometry x="864" y="865" width="100" height="30" as="geometry" />
        </mxCell>
        <mxCell id="EatgDQGPLKpnnFWq92qj-65" style="edgeStyle=orthogonalEdgeStyle;rounded=0;orthogonalLoop=1;jettySize=auto;html=1;entryX=0;entryY=0.5;entryDx=0;entryDy=0;entryPerimeter=0;fillColor=#e3c800;strokeColor=#B09500;" edge="1" parent="1" source="EatgDQGPLKpnnFWq92qj-57" target="EatgDQGPLKpnnFWq92qj-64">
          <mxGeometry relative="1" as="geometry" />
        </mxCell>
        <mxCell id="EatgDQGPLKpnnFWq92qj-66" value="" style="html=1;outlineConnect=0;fillColor=#CCCCCC;strokeColor=#6881B3;gradientColor=none;gradientDirection=north;strokeWidth=2;shape=mxgraph.networks.cloud;fontColor=#ffffff;" vertex="1" parent="1">
          <mxGeometry x="1102.5" y="855" width="90" height="50" as="geometry" />
        </mxCell>
        <mxCell id="EatgDQGPLKpnnFWq92qj-67" style="edgeStyle=orthogonalEdgeStyle;rounded=0;orthogonalLoop=1;jettySize=auto;html=1;exitX=1;exitY=0.5;exitDx=0;exitDy=0;exitPerimeter=0;entryX=-0.111;entryY=0.494;entryDx=0;entryDy=0;entryPerimeter=0;fillColor=#e3c800;strokeColor=#B09500;" edge="1" parent="1" source="EatgDQGPLKpnnFWq92qj-64" target="EatgDQGPLKpnnFWq92qj-66">
          <mxGeometry relative="1" as="geometry" />
        </mxCell>
        <mxCell id="EatgDQGPLKpnnFWq92qj-68" value="ANYDESK&lt;br&gt;PowerEdge R250&lt;br&gt;(DDRVDZ3)" style="fontColor=#0066CC;verticalAlign=top;verticalLabelPosition=bottom;labelPosition=center;align=center;html=1;outlineConnect=0;fillColor=#CCCCCC;strokeColor=#6881B3;gradientColor=none;gradientDirection=north;strokeWidth=2;shape=mxgraph.networks.server;" vertex="1" parent="1">
          <mxGeometry x="1102.5" y="1190" width="90" height="100" as="geometry" />
        </mxCell>
        <mxCell id="EatgDQGPLKpnnFWq92qj-70" value="PROXMOX" style="fontColor=#0066CC;verticalAlign=top;verticalLabelPosition=bottom;labelPosition=center;align=center;html=1;outlineConnect=0;fillColor=#CCCCCC;strokeColor=#6881B3;gradientColor=none;gradientDirection=north;strokeWidth=2;shape=mxgraph.networks.server;" vertex="1" parent="1">
          <mxGeometry x="250" y="80" width="90" height="100" as="geometry" />
        </mxCell>
        <mxCell id="EatgDQGPLKpnnFWq92qj-71" style="edgeStyle=orthogonalEdgeStyle;rounded=0;orthogonalLoop=1;jettySize=auto;html=1;entryX=0;entryY=0.5;entryDx=0;entryDy=0;entryPerimeter=0;exitX=1;exitY=0.5;exitDx=0;exitDy=0;exitPerimeter=0;" edge="1" parent="1" source="EatgDQGPLKpnnFWq92qj-70" target="EatgDQGPLKpnnFWq92qj-8">
          <mxGeometry relative="1" as="geometry">
            <Array as="points">
              <mxPoint x="520" y="130" />
              <mxPoint x="520" y="520" />
            </Array>
          </mxGeometry>
        </mxCell>
        <mxCell id="EatgDQGPLKpnnFWq92qj-72" value="192.168.10.10&lt;br&gt;(bond0)" style="edgeLabel;html=1;align=center;verticalAlign=middle;resizable=0;points=[];" vertex="1" connectable="0" parent="EatgDQGPLKpnnFWq92qj-71">
          <mxGeometry x="-0.7413" y="-1" relative="1" as="geometry">
            <mxPoint x="16" y="-1" as="offset" />
          </mxGeometry>
        </mxCell>
        <mxCell id="EatgDQGPLKpnnFWq92qj-73" style="edgeStyle=orthogonalEdgeStyle;rounded=0;orthogonalLoop=1;jettySize=auto;html=1;entryX=0;entryY=0.5;entryDx=0;entryDy=0;entryPerimeter=0;fillColor=#fa6800;strokeColor=#C73500;" edge="1" parent="1" target="EatgDQGPLKpnnFWq92qj-9">
          <mxGeometry relative="1" as="geometry">
            <mxPoint x="250" y="130" as="sourcePoint" />
            <Array as="points">
              <mxPoint x="80" y="130" />
              <mxPoint x="80" y="1520" />
              <mxPoint x="580" y="1520" />
              <mxPoint x="580" y="1240" />
            </Array>
          </mxGeometry>
        </mxCell>
        <mxCell id="EatgDQGPLKpnnFWq92qj-86" value="192.168.3.240&lt;br&gt;(eno12429)" style="edgeLabel;html=1;align=center;verticalAlign=middle;resizable=0;points=[];" vertex="1" connectable="0" parent="EatgDQGPLKpnnFWq92qj-73">
          <mxGeometry x="-0.9298" relative="1" as="geometry">
            <mxPoint x="-11" as="offset" />
          </mxGeometry>
        </mxCell>
        <mxCell id="EatgDQGPLKpnnFWq92qj-76" value="" style="shape=partialRectangle;whiteSpace=wrap;html=1;bottom=0;right=0;fillColor=none;" vertex="1" parent="1">
          <mxGeometry x="20" y="20" width="60" height="60" as="geometry" />
        </mxCell>
        <mxCell id="EatgDQGPLKpnnFWq92qj-77" value="" style="shape=partialRectangle;whiteSpace=wrap;html=1;bottom=0;right=0;fillColor=none;rotation=90;" vertex="1" parent="1">
          <mxGeometry x="1200" y="20" width="60" height="60" as="geometry" />
        </mxCell>
        <mxCell id="EatgDQGPLKpnnFWq92qj-78" value="" style="shape=partialRectangle;whiteSpace=wrap;html=1;bottom=0;right=0;fillColor=none;rotation=-90;" vertex="1" parent="1">
          <mxGeometry x="20" y="1520" width="60" height="60" as="geometry" />
        </mxCell>
        <mxCell id="EatgDQGPLKpnnFWq92qj-79" value="" style="rounded=0;whiteSpace=wrap;html=1;fillColor=none;glass=0;" vertex="1" parent="1">
          <mxGeometry x="960" y="1420" width="300" height="160" as="geometry" />
        </mxCell>
        <mxCell id="EatgDQGPLKpnnFWq92qj-82" value="&lt;div&gt;&lt;span style=&quot;forced-color-adjust: none; font-family: Helvetica; font-style: normal; font-variant-ligatures: normal; font-variant-caps: normal; letter-spacing: normal; orphans: 2; text-align: left; text-indent: 0px; text-transform: none; widows: 2; word-spacing: 0px; -webkit-text-stroke-width: 0px; white-space: normal; background-color: initial; text-decoration-thickness: initial; text-decoration-style: initial; text-decoration-color: initial; box-shadow: none !important;&quot;&gt;&lt;b style=&quot;&quot;&gt;&lt;font style=&quot;font-size: 16px;&quot;&gt;RED ACAPULCO&lt;/font&gt;&lt;/b&gt;&lt;/span&gt;&lt;/div&gt;&lt;div&gt;&lt;span style=&quot;forced-color-adjust: none; font-family: Helvetica; font-size: 12px; font-style: normal; font-variant-ligatures: normal; font-variant-caps: normal; font-weight: 400; letter-spacing: normal; orphans: 2; text-align: left; text-indent: 0px; text-transform: none; widows: 2; word-spacing: 0px; -webkit-text-stroke-width: 0px; white-space: normal; background-color: initial; text-decoration-thickness: initial; text-decoration-style: initial; text-decoration-color: initial; box-shadow: none !important;&quot;&gt;&lt;br&gt;&lt;/span&gt;&lt;/div&gt;&lt;span style=&quot;forced-color-adjust: none; font-family: Helvetica; font-size: 12px; font-style: normal; font-variant-ligatures: normal; font-variant-caps: normal; font-weight: 400; letter-spacing: normal; orphans: 2; text-align: left; text-indent: 0px; text-transform: none; widows: 2; word-spacing: 0px; -webkit-text-stroke-width: 0px; white-space: normal; background-color: initial; text-decoration-thickness: initial; text-decoration-style: initial; text-decoration-color: initial; box-shadow: none !important;&quot;&gt;Fecha: 25 de marzo de 2025&lt;br style=&quot;forced-color-adjust: none; box-shadow: none !important;&quot;&gt;&lt;/span&gt;&lt;span style=&quot;forced-color-adjust: none; font-family: Helvetica; font-size: 12px; font-style: normal; font-variant-ligatures: normal; font-variant-caps: normal; font-weight: 400; letter-spacing: normal; orphans: 2; text-align: left; text-indent: 0px; text-transform: none; widows: 2; word-spacing: 0px; -webkit-text-stroke-width: 0px; white-space: normal; background-color: initial; text-decoration-thickness: initial; text-decoration-style: initial; text-decoration-color: initial; box-shadow: none !important;&quot;&gt;Autor: Rodrigo Ernesto Ãlvarez Aguilera&lt;/span&gt;" style="text;whiteSpace=wrap;html=1;fontColor=default;" vertex="1" parent="1">
          <mxGeometry x="970" y="1500" width="280" height="70" as="geometry" />
        </mxCell>
        <mxCell id="EatgDQGPLKpnnFWq92qj-85" value="" style="shape=image;verticalLabelPosition=bottom;labelBackgroundColor=default;verticalAlign=top;aspect=fixed;imageAspect=0;image=data:image/png,iVBORw0KGgoAAAANSUhEUgAAASQAAABCCAIAAABxQTxIAAAACXBIWXMAAA7EAAAOxAGVKw4bAAANO0lEQVR4nO2dfUybxx3HD46WYAIFDHNSNiewNHEdWouE9ckofUEoLFugbCiOkNZuU4imRYxOap8WLaRDWWVLjmiiBCFaK6yNhtQqD0FlDWmWbHUbkg1rtIj0KXVomgirJHiGgJxAQovT/fFojy7nt3vebCe9z1++x/fcc7/nnu9zL8/d71KysrIAhULRntREZ4BC+a5AxUahxIm0RF0YZufet7LovoIHMzdUhv779ZVL30xNLHrHv/7qS3A7GP/sUSgo3d3d4m+32+10OmUkEm+x3W9cqzM/9kDV9vRVJsJTFic8Ey89o2muKJToWK1WNJjUYktJz8it3ZG//Q8yziWXJYWSzGguNiUyC0tWRQ1cnjN36m3avKTcXWg5QJIK87Y1PfTXURWVJvC9HX8qfv1MVkWNuslSKJqildhgdm7x62dUl5lIWk7Byuf3F+55MyU9Q6NLUCjqoonYlq3b8MPD7rScAi0SR8l89PGijn/cb1yr9YUoFOWoLbZUmLetyfjqOyonG5m0nILV7ceXrdsQtytSKPJQWWwrfr9Pu6ZjFIyvvkP1Rkly1BRb3ram7IpaFROUBNUbJclRTWxZFTUJqdNQqN4oyYw639mWrduw8vn98s5dmvMv8EPYQdk15IMvdkywNcHArLzTQ4EQFhYWoke8Xq/yZI1GIxqcnJwMBpV+NtTpdPn5+WJwenp6YWFBYZqY+fPz8zMzM+Sn6/X6zMxMMaiKmVqkid06dRMXUUFsKekZUkdElub8vq7di19dXPJPho0wdehFAEBaQWH2Uz+XVGGm5RSseH7/pH2nkk/eZrO5oqKCYZgnn3zSYDCERuB5fnBwcHh4uK+vj7AwdDrd1q1by8rKTCZTZWWY6aA8z3/++ecnT5784IMPCB9oCGFVVVVpaenatWux+UQCPp/vzJkzbrd7dHTU7XaTpAkIzOc4TkhzeHgYM1+n01VUVJSWlpaXl0c30+12E762IIT19fUkt448TQAAwzAWiyWKmQCAkpISVd6tAinK17MV/KY192e/Jo9/9dAL1//1vgQxpEI0clZFTcxa9OqhF66fPU6eJRGdTtfR0RH2wQ2Lz+dramo6depUlDjCs4LOZI0Jy7Ld3d3RZWw2mw8fPlxSUkKYJsdxL7/8cnQZyzC/rq5ubGxMCFqtVtXNZBimp6cnkhhC4Tiuubk5epWu1+v37dtHYqYotkAggF6isbGRMD8oSvtsaQWF5EpbmvN/uZO5fva4tGpHeh1V8Ks/yvjYXV1dPTU1Rf6oAQAMBkNvb29/fz+EMGwEvV4/ODgo6REEALS3t3s8Hr1eH/ZfCGF3d/fQ0BC50gAAVqv18uXL1dXVkSLIM39oaKilpUWv1/f398szE2tRiwhmnj59mlxpAACr1To1NRXFTOE+SDJTLZTWbIV73sx89HHCyN5XGm5d+ETJ5QBZzQYAmD568FpvJ3myZrN5aAjvOgIAOI4bHx+/dOmSENyyZUvYVkdXV1dLSwt2EEI4ODgYKgmh2YMeefjhh0Oj+Xw+k8kU+uJvaWlpbW0Nm1U0mJ+fH7bRtWnTJrEuEolkvsvlmp6eRo9EaXRhKDTT4XDs2rUrZpbCpgkkmhmaVQGxLaBKzaZIbMvWbSDvrclu2mEQig0A8MVzlm8Xb5LE1Ol0o6Oj6DMUvX1oNBrb2tqwt+O2bduw+KGPi81ma29vD9twghCyLIupKLRcGYY5ffo0esTlcjU3N0fqWlitVrvdjpmGPdwyzO/o6AirZNHMjo6OsG05QjOrq6t7e3vRIzzPNzQ0hDVTaKiHmmmxWNA8QAg9Hg8WZ/fu3SQd78Q3I3N+8kvyyDf+808l15LB8h9VEcZsa2tDy4DneZPJFKUn5vV6GxsbbTYberCz846KlGEYTGmbN292OByRyjUYDDocjs2bN6MHrVYrwzBiEELY09ODRrDZbHV1dVE68RzHmUwmnufFIwaDwW63o3FkmF9XV4dVpCKCmZF6TYKZWF2EmQkAwJRms9nKy8sjmRkMBjmOs1gsPp9PPGgwGNra2tBoLMuGqpHjOBXHG6OjQGypkHyAfv78OcJKRkXy6n5LGLO+vh4N1tbWkhSAw+FwuVxi0GAwoN0Pi8WCRmZZlmQ80O12Y29NNJ3CwkL0cXG5XO3t7THTDAaDtbV3lNQTTzyBBuWZv3fv3tCDhGYKbyv0yNNPPy3+xnpxhGYuLCxUVd3xesXsqqurQ4NVVVXKP41IQr7Ylj1kiR3p/wQ+PCb7QrJJX2UimaOs0+nQJ5jjOPJPSVgVgb6et27div5FPnjQ19cXKU3s9W+32wnfyjMzM2hFVFJSotPphN96vR41v6uri9B8r9cbWrlhFW8UsHPLy8vF37LNxLJkMBhEMyGEaHXKcZyKY/qEyBdb1o9/Sh755oUR2RdSQjqB2B555BE0ePLkSfL0P/30UzRYVlYm/ka7NC6Xi7ytEgwG0QoT7Rlu2bIFjXnx4kXyrGJ2id9w16xZgx4fHh4mTxOr3Hiel1RXoMJAbxd6G0HITY4OZqZYuNjMBEmlrBZyP2qnQknf1hJF5obKmKMyWKPls88+I08fe7bCzkIAAGADejEZGBggOUXSZI5IrTvMfPJv3yBkMk3YAT0ZYLdRkoCx4jMajWEtklTKaiFTbGn6FermQyOyK2qFySjk3LhxQ6PMkON0OuW5lKEQFl9CSvne9xuZVlAYOxKFoj0yxZaxrlTdfFAo9zz3fs1GoSQJMsW2bI2Ecf/EQithSpIgU2wwO0/dfFAo9zwyxRYMXFM3H9rxjf9KorNAoQAgW2y3Lo6qmw/tWLrmix2JQtGee3+A5NvFuM5/o1AiIVNsd1HbTEV/JBSKEuSK7epldfNBodzzyB4gmV2a86ubFS2YPXEk0VlIFpYvX57oLCQRK1eujP9F5ffZQv3PxQe4PIc88vV/v69dTgAAmJuQ8fFxTS+HzU6O5KQkLOvXr1c7O1qB3UZJZhKCrTaMDpYBqdPKReSL7frg32Sfq4TMMtL11wCAW19oO2q6ceNGNDgyou1KImz9C3b16GDLcyYnwzsRTAaw24gtApIHtkABW20YHSWrkFDki21+9Kzsc2WTkp5B7l9o9sQRTTdMhBBirhA8Ho92lwMh6186OzsjefXCYBgGXRfH83zcfAHIALuNBw4cIDQThCw8RUFXCVZWVkaJiQIhPHDgAHpE0iokFAVD/7eD00cPyj9dFjrzY+SRNW1DQgj7+vownxZaL/71er2Ymw2n0xnzQTQajdgC6v7+fk3ypxKYmSUlJSRmxmRgYAAN9vT0RPKiJwIhtNvt6BJvJaWs6Dtb4KN3lZwumVRo2GWPHQ0AAMDSnF+jNqRer7darR6PB3MvhTnA0AjMkYaQk+rq6rAdG6PR2NLSwvM85s+HxKVHYsFupmAmwzBKJNfd3Y35jOF5XnB6GRoZQsgwjMfjwbw2YfdfEorcjy/5JwNn34vTzjWpsHD3YfINFq+81qywDYl6L4sJy7Lx8WkxNjbGsiyqFsFRrPBb9KkYyZsiAKChoSGZ25ACXq831EzBh5/gUz30lJju5YLB4I4dOy5fvuOrVWtrq+BXD3VHGck3Jsuyob4oyVHq69/3xp54iC0V5tX/jry3Nn/+nHJvsOSwLBvPhdVOpzM3Nzesn9YovhwBAD6f79lnn42/oxt5RDLTYDCE9WdM4stxZmZm06ZN/f39oVqKfuuAGqWsdLrWt4s3//uXP0s6JSU9Q9Lq6czSp6Ruz+17Y4+kLMnG5XIJPYr4XE7E4XAUFRVF8twYFpvNZjKZZHfuE4LgYRJt+ylnbGzMZDKxLEt+CsdxRUVFyktZhV1s5k69nVlWRV7twOy84k7X4oTnWr9T8LqF72WTCtP0K9K/v+Y+ww8eqNqevsokKT+zJ45E2hxHFUSH5JL2TFGdmZmZxsbGvXv3MgxTXFwcdiMbIasjIyMff/yxJO9AyYPgENZsNq9fvz7KRjaSCAaDTqfz2LFjGzduXL16NTZUK6BFKauwiw0AAGbnrmo/HqVDdampUhRAWkFhcaea7yqU+fPnpO4Xhe29ou4uQRSKiDqz/oOB2SuvNauSlBKW5vwKd2ajULRDtSU2ty584n2lQa3UZLA0559ga6jSKEmLmuvZEqi3pTm/t3U7XU1DSWZUXjyaEL3Nnz83wdZoOihCoShH/ZXaty588uVOZnFC21mCIrMnjkzad9I6jZL8aOIWIRiYnWj5RRzWkl099IL/LRvtp1HuCjTzQXI76H/LdqmpUqMqbvrowS+es6iylSmFEh9U+KgdhSX/5MRLz2SWPqWi153A2fem395Pe2iUuw5txSYwP/KR8kQWJzzX3X8PfPQulRnlLiUeYsMIBq5NHz2YYSojmeE1f/5c4MNjC+fP0SEQyt2OOtO1ZJIKhX3eQt3xL3rHb9+cj08lZjQa0UW7AwMDcd5qmfIdIaFio1C+S9z7HpEplCSBio1CiRNUbBRKnKBio1DiBBUbhRInqNgolDhBxUahxIn/AUil9Hcg2P2cAAAAAElFTkSuQmCC;" vertex="1" parent="1">
          <mxGeometry x="964" y="1430" width="292" height="66" as="geometry" />
        </mxCell>
      </root>
    </mxGraphModel>
  </diagram>
</mxfile>
